<svg xmlns="http://www.w3.org/2000/svg" width="24.042" height="24.042" viewBox="11.479 6.479 24.042 24.042">
    <g data-name="Group 68">
        <path d="m12.54 27.339 19.799-19.8a1.5 1.5 0 0 1 2.121 0 1.5 1.5 0 0 1 0 2.122l-19.799 19.8a1.5 1.5 0 0 1-2.121 0 1.5 1.5 0 0 1 0-2.122z" fill-rule="evenodd" data-name="Rectangle 52"/>
        <path d="m14.661 7.54 19.8 19.799a1.5 1.5 0 0 1 0 2.121 1.5 1.5 0 0 1-2.122 0l-19.8-19.799a1.5 1.5 0 0 1 0-2.121 1.5 1.5 0 0 1 2.122 0z" fill-rule="evenodd" data-name="Rectangle 54"/>
    </g>
</svg>